<?xml version="1.0" encoding="utf-8"?>
<!-- Generator: Adobe Illustrator 23.0.1, SVG Export Plug-In . SVG Version: 6.00 Build 0)  -->
<svg version="1.1" id="Layer_1" xmlns="http://www.w3.org/2000/svg" xmlns:xlink="http://www.w3.org/1999/xlink" x="0px" y="0px"
	 viewBox="0 0 1024 1024" style="enable-background:new 0 0 1024 1024;" xml:space="preserve">
<style type="text/css">
	.st0{clip-path:url(#SVGID_2_);fill:url(#Background_Square_1_);}
	.st1{fill:none;}
	.st2{fill:#FFFFFF;}
</style>
<g id="Background_1_">
	<g>
		<defs>
			<path id="SVGID_1_" d="M844,1024H180C80.6,1024,0,943.4,0,844V180C0,80.6,80.6,0,180,0h664c99.4,0,180,80.6,180,180v664
				C1024,943.4,943.4,1024,844,1024z"/>
		</defs>
		<clipPath id="SVGID_2_">
			<use xlink:href="#SVGID_1_"  style="display:none;overflow:visible;"/>
		</clipPath>
		
			<linearGradient id="Background_Square_1_" gradientUnits="userSpaceOnUse" x1="512" y1="2436" x2="512" y2="1412" gradientTransform="matrix(1 0 0 1 0 -1412)">
			<stop  offset="0" style="stop-color:#660000"/>
			<stop  offset="1" style="stop-color:#990000"/>
		</linearGradient>
		<rect id="Background_Square" class="st0" width="1024" height="1024"/>
	</g>
</g>
<g id="Logo">
	<g id="Corporate_Logo">
		<path id="Moon_Fill_1_" class="st1" d="M640.3,669.8l78.2-119.2c0,0,24.2,18.1,39.6,18.1c16.8,0,38.3-18.1,38.3-18.1l105.1,162.8
			c30.9-60.1,47.3-125.9,47.3-197.7c0-242.1-196.1-437.8-437.5-437.8S74.9,272.6,74.9,514.4c0,183.6,113.8,340.4,274.3,404.9
			l229-357.9L640.3,669.8z"/>
		<path id="MoonAndMountains" class="st2" d="M953.5,515.7c0-244.1-198.4-442.2-441.8-442.2c-118.2,0-229,45.7-312.2,128.9
			c-83,83-129,193.8-129,312c0,89.6,26.9,176.3,77.9,249.5c49.4,71.5,118.5,126.9,199.1,159.5l3.4,1.3l51.4-79.9
			c59.4-88.6,153.1-223.9,174.6-231.7c11.1-0.7,23.2,24.5,55.7,68.5L455.9,950.5h0.3c43-62.4,240.1-346.5,268.9-368
			c11.8,4.7,22.8,9.4,32.9,9.4c9.7,0,17.5-3.7,31.6-9.4c19.8,16.5,66.1,68.8,112.5,141.3c7.1-13.1,13.1-27.2,18.5-41.3
			C942.4,630.2,953.5,573.8,953.5,515.7z M797.7,543.9l-3.7,3.4c-0.3,0.3-20.8,16.8-35.6,16.8c-11.4,0-30.6-12.4-36.9-17.1l-3.7-3
			l-76.9,117.2l-62.1-108.4L347.5,913.5c-77.9-31.9-144-85.6-191.7-154.8C106.1,686.6,79.6,602,79.6,514.4
			c0-115.8,45-224.6,126.2-305.9s190-126.2,305.9-126.2c238.7,0,433.1,194.4,433.1,433.4c0,66.8-14.4,130.3-43.6,189L797.7,543.9z"
			/>
	</g>
	<g id="App_Logo">
		<g>
			<g>
				<path class="st2" d="M341.7,466.3c0,10.2-1.8,19.7-5.5,28.3c-3.7,8.6-8.9,16.1-15.6,22.3c-6.3,5.9-13.4,10.3-21.3,13.1
					s-16.3,4.3-25.2,4.3c-8.8,0-17.1-1.4-24.9-4.1c-7.8-2.7-14.7-6.8-20.8-12.2c-6.8-6.1-12.2-13.6-16.1-22.5
					c-3.9-8.8-5.9-18.6-5.9-29.3c0-9.9,1.6-18.9,4.8-27.1s8.1-15.5,14.7-22c6-6,13.1-10.6,21.3-13.8c8.2-3.2,17.1-4.8,26.7-4.8
					c9.4,0,18.1,1.5,26.1,4.5s15.1,7.3,21.2,13.1c6.8,6.5,12,14,15.4,22.6C340,447.2,341.7,456.5,341.7,466.3z M309.1,467.3
					c0-6.5-1.1-12.9-3.3-19.2c-2.2-6.4-5.5-11.6-10-15.8c-2.8-2.7-6-4.8-9.7-6.3c-3.6-1.5-7.7-2.3-12.2-2.3c-4.4,0-8.5,0.8-12.2,2.3
					c-3.7,1.6-7.1,3.9-10.3,6.9c-4,4-7.1,8.9-9.3,14.9s-3.3,12.1-3.3,18.4c0,7,1.1,13.4,3.3,19.2s5.4,10.7,9.6,14.7
					c2.8,2.7,6.1,4.8,9.9,6.4s7.9,2.4,12.3,2.4c4.3,0,8.3-0.8,12-2.3s7.1-3.7,10.1-6.6c3.9-3.7,7-8.5,9.4-14.3
					C308,480,309.1,473.8,309.1,467.3z"/>
				<path class="st2" d="M490.7,402c-0.1,11.1-0.2,22.3-0.3,33.6c-0.1,11.2-0.1,20.1-0.1,26.5c0,14.5,0,27.6,0.1,39.1
					s0.1,18.8,0.1,21.9l-22.9,9.3c-16.2-21.5-31.2-40.7-44.9-57.5c-13.8-16.8-22.2-27-25.2-30.5l-0.5,0.2c0,13.8,0.1,30.4,0.2,49.9
					c0.2,19.5,0.2,31.5,0.2,36h-29.6c0.1-3.2,0.1-10.2,0.2-21.1s0.1-24.4,0.1-40.6c0-6.6,0-15-0.1-25.4c-0.1-10.3-0.2-21.4-0.3-33.2
					l24.8-10c2.8,3.4,11.2,13.7,25,30.8c13.9,17.1,28.3,34.5,43.4,52.2l0.4-0.2c0-8.8-0.1-21.9-0.3-39.2s0-31.3,0-41.8H490.7z"/>
				<path class="st2" d="M643.7,409.3c-1.2,2.8-7.9,18.2-20.1,46.4c-12.3,28.2-23.3,53.5-33.1,75.9H559
					c-10.2-23.7-20.1-46.3-29.6-68s-17.1-39.6-22.9-53.9l31.4-10.2c0.8,2.7,5.4,14.6,13.8,35.7c8.4,21.1,16.3,40.7,23.8,58.6h0.7
					c7.9-19.2,16-39.2,24.3-60c8.4-20.8,12.9-32.2,13.6-34.3L643.7,409.3z"/>
				<path class="st2" d="M692,530.5h-31.8c0.1-5.4,0.1-13.3,0.2-23.6c0.1-10.3,0.1-24.3,0.1-41.9c0-7.4,0-16.8-0.1-28.2
					c-0.1-11.4-0.2-22.9-0.3-34.8H692c-0.1,8.8-0.1,18.9-0.2,30.3c-0.1,11.4-0.1,21.6-0.1,30.5c0,18.1,0,32.1,0.1,42
					C691.9,514.7,692,523.2,692,530.5z"/>
				<path class="st2" d="M817.6,426.8c-1.9,0-6.1,0-12.9-0.1c-6.7-0.1-13.6-0.1-20.7-0.1c-4.3,0-9,0-14.2,0s-9.4,0-12.8,0
					c0,4.7,0,10.1-0.1,16.1s-0.1,11.3-0.1,16c2.2,0,5.7,0,10.7,0c4.9,0,9.1,0,12.6,0c7.5,0,15,0,22.5-0.1c7.4-0.1,12-0.1,13.7-0.1
					v20.7c-1.9,0-7,0-15.5-0.1s-15.6-0.1-21.3-0.1c-3,0-6.8,0-11.4,0c-4.6,0-8,0-10.1,0c0,10.4,0,19.9,0.1,28.5s0.1,16.2,0.2,22.7
					h-31.8c0.1-4.5,0.1-11.4,0.2-20.8s0.1-24.3,0.1-44.6c0-7.4,0-16.8-0.1-28.2c-0.1-11.4-0.2-22.9-0.3-34.7c4.3,0,10.2,0,17.9,0
					c7.6,0,16,0,25.2,0c10.3,0,20.4,0,30.2,0s15.8,0,17.8,0L817.6,426.8L817.6,426.8z"/>
			</g>
		</g>
		<path id="Eye" class="st2" d="M512,197.5c32.6,0,59,26.4,59,59s-26.4,59-59,59s-59-26.4-59-59S479.4,197.5,512,197.5z
			 M722.9,278.6c-2.8,2.6-6.4,3.9-9.9,3.9c-0.3,0-0.6,0-0.9,0c-9.9,9.3-28.1,25.1-52.4,41.1c-21.8,14.3-44,25.7-66,33.9
			C566,367.8,538.5,373,512,373s-54-5.2-81.8-15.6c-22-8.2-44.2-19.6-66-33.9c-24.5-16.1-42.7-32-52.6-41.3
			c-4.4,0.8-9.1-0.4-12.6-3.7c-5.8-5.5-6.1-14.7-0.6-20.5c1-1,24.2-25.5,61.8-50.2c50.2-33,102.3-50.4,150.8-50.4
			s100.6,17.4,150.8,50.4c37.5,24.7,60.8,49.1,61.8,50.2C729,263.9,728.8,273.1,722.9,278.6z M562,193.5c-16.2-4.3-33.3-7-51-7
			c-16.6,0-32.7,2.3-48,6.2c-19.1,14.7-31.5,37.9-31.5,63.8c0,44.4,36.1,80.5,80.5,80.5s80.5-36.1,80.5-80.5
			C592.5,231,580.6,208.2,562,193.5z M703.1,278.6c-0.2-0.2-0.4-0.4-0.6-0.6c-0.2-0.2-22.3-23.4-57.2-46.2
			c-17.1-11.2-39.2-23.5-64.5-32.4c12.9,15.5,20.7,35.5,20.7,57.2c0,49.4-40.1,89.5-89.5,89.5s-89.5-40.1-89.5-89.5
			c0-22.2,8.1-42.5,21.6-58.2c-26.4,9-49.6,21.9-67.3,33.4c-32.6,21.3-54,42.9-56.8,45.9c26.2,24.2,102.3,86.3,192,86.3
			C600.6,364,675.8,303.5,703.1,278.6z"/>
	</g>
</g>
</svg>
